<svg xmlns="http://www.w3.org/2000/svg" viewBox="0 0 1600 1000" role="img" aria-labelledby="title desc">
  <title id="title">Impressão técnica A1</title>
  <desc id="desc">Ilustração de uma impressora de grande formato com pranchas A1 e linhas de projeto.</desc>
  <defs>
    <linearGradient id="bg" x1="0" y1="0" x2="1" y2="1">
      <stop offset="0" stop-color="#16343f"/>
      <stop offset="0.45" stop-color="#20454d"/>
      <stop offset="1" stop-color="#f4efe6"/>
    </linearGradient>
    <pattern id="grid" width="48" height="48" patternUnits="userSpaceOnUse">
      <path d="M 48 0 L 0 0 0 48" fill="none" stroke="#ffffff" stroke-opacity="0.12" stroke-width="1"/>
    </pattern>
    <filter id="shadow" x="-20%" y="-20%" width="140%" height="140%">
      <feDropShadow dx="0" dy="22" stdDeviation="22" flood-color="#061014" flood-opacity="0.28"/>
    </filter>
  </defs>
  <rect width="1600" height="1000" fill="url(#bg)"/>
  <rect width="1600" height="1000" fill="url(#grid)"/>
  <g opacity="0.35" fill="none" stroke="#ffffff" stroke-width="3">
    <path d="M120 184h364v242H120z"/>
    <path d="M166 233h272v144H166z"/>
    <path d="M166 233l272 144M438 233 166 377"/>
    <path d="M1020 160h220v136h-220zM1060 200h140M1060 236h84"/>
  </g>
  <g filter="url(#shadow)">
    <path d="M706 332h586c38 0 68 30 68 68v216H638V400c0-38 30-68 68-68z" fill="#eef3f1"/>
    <path d="M686 390h626v162H686z" fill="#1f2d31"/>
    <path d="M760 438h430v60H760z" fill="#d9e5e1"/>
    <circle cx="1254" cy="470" r="20" fill="#2dd4bf"/>
    <path d="M588 596h822v92c0 42-34 76-76 76H664c-42 0-76-34-76-76z" fill="#c8d5d2"/>
    <path d="M684 690h626" stroke="#74837f" stroke-width="10" stroke-linecap="round"/>
  </g>
  <g filter="url(#shadow)">
    <path d="M258 476h586c28 0 50 22 50 50v340H208V526c0-28 22-50 50-50z" fill="#fbfbf7"/>
    <path d="M292 540h520v254H292z" fill="#ffffff" stroke="#d7dedb" stroke-width="4"/>
    <g stroke="#15746f" stroke-width="5" fill="none" opacity="0.9">
      <path d="M334 760h430V580H334z"/>
      <path d="M372 716h162V612H372zM570 716h154V612H570z"/>
      <path d="M334 670h430M498 580v180M334 626h430"/>
      <path d="M402 586v-36M690 586v-36M402 794v42M690 794v42"/>
    </g>
    <g fill="#0f4d4a">
      <rect x="332" y="824" width="236" height="18" rx="9"/>
      <rect x="332" y="850" width="158" height="12" rx="6" opacity="0.7"/>
      <text x="676" y="844" font-family="Arial, sans-serif" font-size="42" font-weight="700">A1</text>
    </g>
  </g>
  <g filter="url(#shadow)">
    <path d="M990 666c124-32 224-18 300 18v116c-96-44-196-52-300-20z" fill="#ffffff" opacity="0.94"/>
    <g stroke="#23615e" stroke-width="4" fill="none" opacity="0.82">
      <path d="M1034 724h210M1034 758h166M1034 792h230"/>
      <path d="M1246 708l-42 64 76-22z"/>
    </g>
  </g>
</svg>
